<svg width="17" height="16" viewBox="0 0 17 16" fill="none" xmlns="http://www.w3.org/2000/svg">
<g clip-path="url(#clip0_76_52)">
<mask id="mask0_76_52" style="mask-type:luminance" maskUnits="userSpaceOnUse" x="0" y="0" width="17" height="16">
<path d="M17 0H0V16H17V0Z" fill="white"/>
</mask>
<g mask="url(#mask0_76_52)">
<path d="M12.6241 10.0711C12.6241 10.0711 13.5803 13.7216 13.8566 14.7161C14.1169 15.6511 13.32 15.6261 12.8313 15.3066C12.2841 14.9461 8.50157 12.4011 8.50157 12.4011C8.50157 12.4011 4.68718 14.9661 4.16124 15.3111C3.70968 15.6061 2.8703 15.6711 3.2103 14.7266C3.45468 13.9316 4.64999 10.0711 4.64999 10.0711C4.64999 10.0711 1.15968 7.66614 0.787804 7.39614C0.415931 7.13114 0.399993 6.38114 1.06937 6.32664C1.73343 6.27614 6.02595 5.93164 6.02595 5.93164C6.02595 5.93164 7.68876 1.59665 7.91188 1.02115C8.1297 0.336156 8.85219 0.321156 9.14438 1.01115C9.38344 1.57115 11.2481 5.93164 11.2481 5.93164C11.2481 5.93164 15.3016 6.27114 15.9125 6.32114C16.5819 6.36115 16.635 7.14164 16.1994 7.45665C15.7691 7.77614 12.6241 10.0711 12.6241 10.0711Z" fill="#FFC44D"/>
<path fill-rule="evenodd" clip-rule="evenodd" d="M9.14611 1.0108C9.38517 1.5713 11.2488 5.9318 11.2488 5.9318C11.2488 5.9318 15.3033 6.2713 15.9137 6.3193C16.5825 6.3593 16.6351 7.1398 16.2011 7.4573C15.7681 7.7733 12.6231 10.0703 12.6231 10.0703C12.6231 10.0703 13.5789 13.7188 13.8567 14.7128C14.117 15.6493 13.3185 15.6243 12.833 15.3048C12.2831 14.9443 8.50064 12.3983 8.50064 12.3983C8.50064 12.3983 4.68839 14.9638 4.16351 15.3088C3.71195 15.6043 2.86886 15.6688 3.20886 14.7268C3.45589 13.9318 4.6512 10.0703 4.6512 10.0703C4.6512 10.0703 1.1577 7.6643 0.786888 7.3958C0.41395 7.1278 0.402263 6.3798 1.06739 6.3263C1.73358 6.2733 6.02607 5.9318 6.02607 5.9318C6.02607 5.9318 7.68995 1.5948 7.91361 1.0213C8.13036 0.335796 8.85232 0.320296 9.14611 1.0108Z" stroke="black" stroke-width="1.4375" stroke-linecap="round" stroke-linejoin="round"/>
</g>
</g>
<defs>
<clipPath id="clip0_76_52">
<rect width="17" height="16" fill="white"/>
</clipPath>
</defs>
</svg>
