<svg width="40" height="40" viewBox="0 0 40 40" fill="none" xmlns="http://www.w3.org/2000/svg">
<g clip-path="url(#clip0_76_37)">
<path d="M34 0H6C2.68629 0 0 2.68629 0 6V34C0 37.3137 2.68629 40 6 40H34C37.3137 40 40 37.3137 40 34V6C40 2.68629 37.3137 0 34 0Z" fill="#1DA1F2"/>
<path d="M34.1406 11.8748C33.2145 12.4892 32.127 12.8154 31.0156 12.8123C32.2039 12.1123 33.0935 11.0002 33.5156 9.68731C32.5307 10.52 31.2895 10.9889 30 11.0154C29.1498 10.1447 28.0402 9.57313 26.8376 9.38657C25.635 9.2 24.4044 9.40848 23.3303 9.98071C22.2563 10.5529 21.3968 11.4581 20.8808 12.5603C20.3649 13.6624 20.2203 14.9022 20.4688 16.0936C18.2807 15.978 16.1415 15.4036 14.1899 14.4077C12.2383 13.4117 10.5179 12.0163 9.14062 10.3123C8.46665 11.5319 8.26931 12.9582 8.58685 14.3149C8.90438 15.6717 9.71419 16.8623 10.8594 17.6561C9.99509 17.6683 9.13962 17.4811 8.35938 17.1092C8.38039 18.3676 8.82286 19.5827 9.61601 20.56C10.4092 21.5373 11.5072 22.2203 12.7344 22.4998C11.9175 22.7131 11.063 22.7398 10.2344 22.5779C10.5918 23.6928 11.2883 24.6684 12.2266 25.3686C13.1649 26.0688 14.2983 26.4588 15.4688 26.4842C12.9967 27.9838 10.157 28.7681 7.26562 28.7498C9.68713 30.3307 12.4999 31.2085 15.3907 31.2856C18.2815 31.3627 21.1371 30.636 23.6394 29.1865C26.1417 27.7369 28.1926 25.6213 29.5639 23.0752C30.9352 20.5292 31.573 17.6525 31.4062 14.7654C32.4372 13.9224 33.3561 12.9509 34.1406 11.8748Z" fill="white"/>
</g>
<defs>
<clipPath id="clip0_76_37">
<rect width="40" height="40" fill="white"/>
</clipPath>
</defs>
</svg>
